<svg width="70" height="18" viewBox="0 0 70 18" fill="none" xmlns="http://www.w3.org/2000/svg">
<path d="M24.938 17.2249C22.4022 17.2249 20.0484 16.176 18.4772 14.2306C17.2901 12.7609 16.7197 10.7646 16.7197 8.70997C16.7197 6.68032 17.3147 4.67025 18.477 3.20831C19.9362 1.3739 22.5124 0.225098 24.938 0.225098C27.6222 0.225098 29.7705 1.15771 31.4129 3.21335C32.5813 4.67607 33.1463 6.67722 33.1463 8.71017C33.1463 10.6807 32.5468 12.7792 31.4129 14.2306C29.8835 16.1886 27.4802 17.2249 24.938 17.2249V14.9827C26.2839 14.9827 27.5324 14.3417 28.4043 13.145C29.2701 11.9565 29.6735 10.4955 29.6735 8.70997C29.6735 6.99947 29.2384 5.40025 28.4043 4.26599C27.544 3.09721 26.2657 2.43953 24.938 2.43953C23.6062 2.43953 22.327 3.09042 21.4661 4.26599C20.6365 5.39986 20.2002 7.00373 20.2002 8.70997C20.2002 10.411 20.6416 12.0139 21.4661 13.1452C22.3278 14.3276 23.6024 14.9829 24.938 14.9829V17.2251V17.2249ZM6.4043 0.233241C5.04787 0.233241 3.50689 0.583215 2.19755 1.3898C0.989137 2.13357 2.86392e-07 3.33647 2.86392e-07 5.33064C-0.000561963 7.12666 0.826928 8.17852 0.804438 8.14943C1.15641 8.59635 1.72301 9.35738 3.2044 9.8043C3.86645 10.004 5.28191 10.3107 6.69147 10.5139C8.09062 10.7175 9.46757 10.911 10.0284 11.1069C10.474 11.2633 11.2225 11.4764 11.2225 12.6347C11.2225 13.7884 10.4339 14.1405 10.2969 14.2169C10.16 14.2915 9.214 14.8903 7.51347 14.8903C6.25797 14.8903 4.74861 14.3695 4.19845 14.098C3.56424 13.7866 2.89896 13.3748 2.27837 12.3291C2.12404 12.0699 1.88058 11.357 1.88058 10.651H0.341567V16.5996H2.05221V15.7959C2.05221 15.7044 2.13514 15.3281 2.42231 15.507C2.77962 15.731 3.82849 16.307 4.92516 16.6229C5.82434 16.8823 6.40416 17.0682 7.52205 17.0682C9.34598 17.0682 10.3258 16.6584 11.0032 16.3916C11.6414 16.1395 12.4299 15.687 13.0705 14.9824C13.4174 14.6014 14.1781 13.6247 14.1781 11.852C14.1781 10.1504 13.516 9.09427 13.2831 8.77299C12.9659 8.33518 12.5784 7.99587 12.1745 7.73431C11.8227 7.50591 11.2675 7.23155 10.8132 7.07819C9.93143 6.77959 7.93769 6.4112 6.98426 6.27354C5.98444 6.12948 4.25004 5.93132 3.55735 5.63563C3.34735 5.54586 2.9192 5.26453 2.9192 4.57893C2.9192 4.09129 3.115 3.67791 3.50197 3.34384C4.11623 2.81296 5.35697 2.48296 6.65028 2.48296C8.17932 2.47521 9.47418 2.95741 10.2979 3.46541C10.578 3.63797 10.9058 3.88577 11.1661 4.17893C11.4599 4.50932 11.8723 5.19589 12.0214 6.15352H13.4032V0.975457H11.8604V1.5773C11.8604 1.77157 11.7149 2.02402 11.4398 1.81539C10.7494 1.31574 8.79723 0.237701 6.40402 0.233241H6.4043ZM40.2143 1.1742L47.7403 10.543L47.663 4.23516C47.6554 3.40802 47.5449 3.0627 46.8963 3.0627H45.4813V1.17575H51.9162V3.0627H50.5359C49.8744 3.0627 49.8327 3.3545 49.8247 4.23516L49.9413 16.288H47.7376L39.0691 5.61624L39.071 13.19C39.0786 14.0133 39.1065 14.4011 39.7215 14.4011H41.267V16.2872H34.9473V14.4013H36.4246C36.9764 14.4013 36.9545 13.6755 36.9545 13.1472V4.3069C36.9545 3.73627 36.8965 3.06405 36.03 3.06405H34.8313V1.1742H40.2143ZM59.2695 14.3976C59.3299 14.3976 59.5984 14.3869 59.6504 14.365C59.799 14.301 59.8998 14.1548 59.9464 14.0024C59.9661 13.9384 59.9759 13.6554 59.9759 13.5939L59.9771 10.6119C59.9771 10.5401 59.9733 10.5091 59.885 10.3493C59.788 10.1748 55.9429 4.16419 55.7669 3.89953C55.5484 3.57089 55.1646 3.06289 54.5816 3.06289H53.2444V1.17516H60.7908V3.06056H59.8811C59.6706 3.06056 59.5308 3.33589 59.7106 3.64185C59.7106 3.64185 62.2495 7.83126 62.2736 7.87508C62.2972 7.91967 62.3174 7.93034 62.3498 7.88962C62.3815 7.84793 64.9524 3.68024 64.9727 3.64728C65.0949 3.44524 65.012 3.0627 64.7485 3.0627H63.8153V1.17516H70V3.0627H68.6183C68.117 3.0627 67.9131 3.19066 67.5359 3.77874C67.3635 4.04786 63.4773 10.1665 63.3716 10.3323C63.3163 10.4189 63.321 10.5397 63.321 10.6115V13.5931C63.321 13.6536 63.3309 13.9371 63.3506 14.0007C63.3974 14.1539 63.4987 14.3001 63.6471 14.3633C63.6992 14.3854 63.964 14.3962 64.0243 14.3962H65.4376V16.2836H57.9302V14.396L59.2698 14.3976H59.2695Z" fill="#9F9CB1" fill-opacity="0.5"/>
</svg>
