<svg width="175" height="175" viewBox="0 0 175 175" fill="none" xmlns="http://www.w3.org/2000/svg">
<path opacity="0.3" fill-rule="evenodd" clip-rule="evenodd" d="M115.631 1.57298C131.024 6.71547 139.335 23.3632 134.192 38.7568L124.28 68.4285L153.931 78.334C169.324 83.4766 177.634 100.124 172.492 115.518C167.349 130.911 150.702 139.222 135.308 134.079L105.657 124.173L95.7135 153.937C90.571 169.331 73.9232 177.641 58.5298 172.499C43.1363 167.356 34.8262 150.708 39.9687 135.315L49.912 105.551L20.1271 95.6006C4.73353 90.458 -3.5766 73.8102 1.56592 58.4167C6.70845 43.0231 23.3563 34.713 38.7498 39.8556L68.5348 49.8058L78.4472 20.1341C83.5898 4.7406 100.238 -3.56951 115.631 1.57298Z" fill="#C4C4C4" fill-opacity="0.1"/>
</svg>
